<?xml version="1.0"?>
<svg xmlns="http://www.w3.org/2000/svg" height="512px" viewBox="-14 0 461 461.6" width="512px" class=""><g><path d="m168.300781 93.601562h16v16h-16zm0 0" data-original="#000000" class="active-path" data-old_color="#000000" fill="#1E3B70"/><path d="m168.300781 157.601562h16v16h-16zm0 0" data-original="#000000" class="active-path" data-old_color="#000000" fill="#1E3B70"/><path d="m168.300781 221.601562h16v16h-16zm0 0" data-original="#000000" class="active-path" data-old_color="#000000" fill="#1E3B70"/><path d="m88.300781 285.601562h16v16h-16zm0 0" data-original="#000000" class="active-path" data-old_color="#000000" fill="#1E3B70"/><path d="m360.300781 173.601562h16v16h-16zm0 0" data-original="#000000" class="active-path" data-old_color="#000000" fill="#1E3B70"/><path d="m88.300781 221.601562h16v16h-16zm0 0" data-original="#000000" class="active-path" data-old_color="#000000" fill="#1E3B70"/><path d="m88.300781 93.601562h16v16h-16zm0 0" data-original="#000000" class="active-path" data-old_color="#000000" fill="#1E3B70"/><path d="m168.300781 285.601562h16v16h-16zm0 0" data-original="#000000" class="active-path" data-old_color="#000000" fill="#1E3B70"/><path d="m88.300781 157.601562h16v16h-16zm0 0" data-original="#000000" class="active-path" data-old_color="#000000" fill="#1E3B70"/><path d="m296.300781 237.601562h16v16h-16zm0 0" data-original="#000000" class="active-path" data-old_color="#000000" fill="#1E3B70"/><path d="m360.300781 237.601562h16v16h-16zm0 0" data-original="#000000" class="active-path" data-old_color="#000000" fill="#1E3B70"/><path d="m360.300781 301.601562h16v16h-16zm0 0" data-original="#000000" class="active-path" data-old_color="#000000" fill="#1E3B70"/><path d="m296.300781 173.601562h16v16h-16zm0 0" data-original="#000000" class="active-path" data-old_color="#000000" fill="#1E3B70"/><path d="m296.300781 301.601562h16v16h-16zm0 0" data-original="#000000" class="active-path" data-old_color="#000000" fill="#1E3B70"/><path d="m80.300781 365.601562h48v64h-48zm0 0" data-original="#000000" class="active-path" data-old_color="#000000" fill="#1E3B70"/><path d="m144.300781 365.601562h48v64h-48zm0 0" data-original="#000000" class="active-path" data-old_color="#000000" fill="#1E3B70"/><path d="m312.300781 381.601562h48v48h-48zm0 0" data-original="#000000" class="active-path" data-old_color="#000000" fill="#1E3B70"/><path d="m408.300781 445.601562v-297.753906l-144-36v333.753906h-16v-385.859374l-224-59.742188v445.601562h-24v16h432v-16zm-256-360c0-4.417968 3.582031-8 8-8h32c4.417969 0 8 3.582032 8 8v32c0 4.417969-3.582031 8-8 8h-32c-4.417969 0-8-3.582031-8-8zm0 64c0-4.417968 3.582031-8 8-8h32c4.417969 0 8 3.582032 8 8v32c0 4.417969-3.582031 8-8 8h-32c-4.417969 0-8-3.582031-8-8zm0 64c0-4.417968 3.582031-8 8-8h32c4.417969 0 8 3.582032 8 8v32c0 4.417969-3.582031 8-8 8h-32c-4.417969 0-8-3.582031-8-8zm0 64c0-4.417968 3.582031-8 8-8h32c4.417969 0 8 3.582032 8 8v32c0 4.417969-3.582031 8-8 8h-32c-4.417969 0-8-3.582031-8-8zm-80-192c0-4.417968 3.582031-8 8-8h32c4.417969 0 8 3.582032 8 8v32c0 4.417969-3.582031 8-8 8h-32c-4.417969 0-8-3.582031-8-8zm0 64c0-4.417968 3.582031-8 8-8h32c4.417969 0 8 3.582032 8 8v32c0 4.417969-3.582031 8-8 8h-32c-4.417969 0-8-3.582031-8-8zm0 64c0-4.417968 3.582031-8 8-8h32c4.417969 0 8 3.582032 8 8v32c0 4.417969-3.582031 8-8 8h-32c-4.417969 0-8-3.582031-8-8zm0 64c0-4.417968 3.582031-8 8-8h32c4.417969 0 8 3.582032 8 8v32c0 4.417969-3.582031 8-8 8h-32c-4.417969 0-8-3.582031-8-8zm136 152v16h-144v-88c0-4.417968 3.582031-8 8-8h128c4.417969 0 8 3.582032 8 8zm72-264c0-4.417968 3.582031-8 8-8h32c4.417969 0 8 3.582032 8 8v32c0 4.417969-3.582031 8-8 8h-32c-4.417969 0-8-3.582031-8-8zm0 64c0-4.417968 3.582031-8 8-8h32c4.417969 0 8 3.582032 8 8v32c0 4.417969-3.582031 8-8 8h-32c-4.417969 0-8-3.582031-8-8zm0 96v-32c0-4.417968 3.582031-8 8-8h32c4.417969 0 8 3.582032 8 8v32c0 4.417969-3.582031 8-8 8h-32c-4.417969 0-8-3.582031-8-8zm96 120h-80v-72c0-4.417968 3.582031-8 8-8h64c4.417969 0 8 3.582032 8 8zm16-120c0 4.417969-3.582031 8-8 8h-32c-4.417969 0-8-3.582031-8-8v-32c0-4.417968 3.582031-8 8-8h32c4.417969 0 8 3.582032 8 8zm0-64c0 4.417969-3.582031 8-8 8h-32c-4.417969 0-8-3.582031-8-8v-32c0-4.417968 3.582031-8 8-8h32c4.417969 0 8 3.582032 8 8zm0-64c0 4.417969-3.582031 8-8 8h-32c-4.417969 0-8-3.582031-8-8v-32c0-4.417968 3.582031-8 8-8h32c4.417969 0 8 3.582032 8 8zm0 0" data-original="#000000" class="active-path" data-old_color="#000000" fill="#1E3B70"/></g> </svg>
